<mxfile host="app.diagrams.net" modified="2022-03-21T17:39:11.654Z" agent="5.0 (X11)" etag="p68wDhfbRxLVup7h96C1" version="17.1.3" type="github">
  <diagram name="Page-1" id="52a04d89-c75d-2922-d76d-85b35f80e030">
    <mxGraphModel dx="868" dy="508" grid="1" gridSize="10" guides="1" tooltips="1" connect="1" arrows="1" fold="1" page="1" pageScale="1" pageWidth="1100" pageHeight="850" background="none" math="0" shadow="0">
      <root>
        <mxCell id="0" />
        <mxCell id="1" parent="0" />
        <mxCell id="3N898tourdAV6GYtigl1-4" value="" style="edgeStyle=orthogonalEdgeStyle;rounded=0;orthogonalLoop=1;jettySize=auto;html=1;" edge="1" parent="1" source="3N898tourdAV6GYtigl1-1" target="3N898tourdAV6GYtigl1-2">
          <mxGeometry relative="1" as="geometry" />
        </mxCell>
        <mxCell id="3N898tourdAV6GYtigl1-1" value="start" style="ellipse;whiteSpace=wrap;html=1;" vertex="1" parent="1">
          <mxGeometry x="310" y="30" width="160" height="60" as="geometry" />
        </mxCell>
        <mxCell id="3N898tourdAV6GYtigl1-6" value="" style="edgeStyle=orthogonalEdgeStyle;rounded=0;orthogonalLoop=1;jettySize=auto;html=1;" edge="1" parent="1" source="3N898tourdAV6GYtigl1-2" target="3N898tourdAV6GYtigl1-5">
          <mxGeometry relative="1" as="geometry" />
        </mxCell>
        <mxCell id="3N898tourdAV6GYtigl1-8" value="" style="edgeStyle=orthogonalEdgeStyle;rounded=0;orthogonalLoop=1;jettySize=auto;html=1;" edge="1" parent="1" source="3N898tourdAV6GYtigl1-2" target="3N898tourdAV6GYtigl1-7">
          <mxGeometry relative="1" as="geometry" />
        </mxCell>
        <mxCell id="3N898tourdAV6GYtigl1-2" value="Get all Login/logout event" style="rounded=0;whiteSpace=wrap;html=1;" vertex="1" parent="1">
          <mxGeometry x="330" y="130" width="120" height="60" as="geometry" />
        </mxCell>
        <mxCell id="3N898tourdAV6GYtigl1-5" value="process(events)" style="whiteSpace=wrap;html=1;rounded=0;" vertex="1" parent="1">
          <mxGeometry x="330" y="240" width="120" height="60" as="geometry" />
        </mxCell>
        <mxCell id="3N898tourdAV6GYtigl1-7" value="check get all user login / logout" style="rhombus;whiteSpace=wrap;html=1;rounded=0;" vertex="1" parent="1">
          <mxGeometry x="80" y="84.38" width="180" height="151.25" as="geometry" />
        </mxCell>
      </root>
    </mxGraphModel>
  </diagram>
</mxfile>
